<svg width="476" height="679" xmlns="http://www.w3.org/2000/svg" xmlns:xlink="http://www.w3.org/1999/xlink"><defs><path id="a" d="M0 0h476v679H0z"/></defs><g fill="none" fill-rule="evenodd"><mask id="b" fill="#fff"><use xlink:href="#a"/></mask><g mask="url(#b)" fill="#000"><path d="M229.453 29.074c-1.414 2.24-2.432 4.761-2.262 5.601.328 1.624 34.666 21.801 35.568 20.9.581-.582-.311-1.735-12.56-16.243C241.624 29.175 236.844 25 233.791 25c-.978 0-2.913 1.818-4.338 4.074M364 52.67c-20.477 1.664-45.695 3.449-62 4.389-10.725.619-19.913 1.519-20.417 2-.557.531-.497 7.691.15 18.189l1.068 17.313 9.349 19.72c7.106 14.988 9.787 19.719 11.171 19.719 1.572 0 1.778-.72 1.501-5.25-.281-4.573-.081-5.25 1.544-5.25 1.298 0 2.371 1.367 3.525 4.491.951 2.573 2.396 4.633 3.384 4.823 2.083.402 2.074 1.005.234-16.314-.818-7.7-1.492-16.579-1.498-19.731-.01-5.145.219-5.778 2.239-6.19 1.238-.253 11.7-.759 23.25-1.126 11.55-.366 25.5-.955 31-1.309l10-.644-.334-12.76c-.184-7.017-.637-14.892-1.008-17.5-.671-4.728-.683-4.74-4.665-4.838-2.196-.053-6.018.067-8.493.268M207.5 90.639c-4.4 1.342-10.025 2.676-12.5 2.965-8.577 1.001-9 1.204-9 4.326 0 1.591 3.562 17.445 7.916 35.231 4.354 17.787 8.87 37.283 10.036 43.325 1.166 6.042 2.518 11.384 3.005 11.871.515.515 6.471-.398 14.215-2.179 51.981-11.957 48.047-10.84 51.578-14.645 5.454-5.879 4.581-7.636-4.495-9.047-6.982-1.086-6.745-1.905 2.245-7.74 2.75-1.785 5-3.875 5-4.644 0-.856-2.323-2.043-6-3.065-3.3-.917-8.247-2.674-10.994-3.904l-4.994-2.236-8.8 2.174c-4.84 1.196-9.008 1.967-9.262 1.712-.503-.503-11.36-40.556-13.63-50.283-1.692-7.251-2.497-7.468-14.32-3.861m157 16.233c-24.531 9.936-36.5 15.508-36.5 16.991 0 .458 1.8 1.541 4 2.405 4.924 1.934 5.073 3.901.5 6.599-2.536 1.497-3.5 2.764-3.5 4.599 0 3.297 1.841 3.293 15.758-.035 5.908-1.412 17.863-4.071 26.567-5.908 8.704-1.837 16.012-3.527 16.24-3.755.228-.228.532-2.631.675-5.341.259-4.902.245-4.926-2.74-4.738-1.65.104-4.462.492-6.25.863-2.065.429-3.25.284-3.25-.397 0-.589 3.901-4.843 8.669-9.453 6.265-6.058 8.492-8.841 8.031-10.041-.35-.914-1.439-1.627-2.419-1.585-.979.041-12.581 4.45-25.781 9.796m-223.362-7.978c-1.502.951-2.877 7.328-2.341 10.856.331 2.175.705 2.25 11.273 2.25 8.311 0 10.93-.312 10.93-1.302 0-.716-3.988-3.866-8.863-7-9.797-6.299-9.112-6-10.999-4.804m212.833 48.639c-7.011 7.079-7.028 8.575-.094 7.879 15.384-1.543 15.206-1.501 16.312-3.927.591-1.297.811-3.042.49-3.879-.574-1.495-7.875-6.606-9.438-6.606-.439 0-3.711 2.94-7.27 6.533m49.529 7.051c-12.1.737-22.9 1.572-24 1.856-1.1.283-3.737 2.122-5.86 4.087-3.596 3.329-3.75 3.694-2.25 5.351.886.979 1.61 1.969 1.611 2.201 0 .231-2.306.261-5.124.066-7.005-.485-5.811.904 5.449 6.339 17.144 8.276 27.146 14.363 43.465 26.45C425.75 207.57 433.932 213 434.971 213c1.655 0 1.774-.402.959-3.243-.511-1.784-.97-8.422-1.018-14.75-.048-6.329-.611-18.257-1.25-26.507l-1.162-15-3.5-.129c-1.925-.071-13.4.475-25.5 1.213m-98.801 12.889c-1.541.804-5.128 3.497-7.972 5.985-2.921 2.555-10.403 7.084-17.199 10.411-15.456 7.567-19.037 10.282-24.813 18.814l-4.739 6.999 1.527 4.326c1.651 4.679 1.303 6.976-1.706 11.247-2.089 2.966-2.578 7.391-1.365 12.348.725 2.962.561 3.181-3.586 4.818-6.898 2.722-11.616 6.472-13.788 10.96-1.765 3.645-1.863 4.647-.8 8.138.698 2.29 3.043 5.766 5.522 8.185l4.308 4.203-1.932 3.797c-1.062 2.088-3.401 7.846-5.198 12.796-3.098 8.537-3.289 9.875-3.714 26-.55 20.839 1.138 29.512 8.817 45.282 5.765 11.841 14.753 22.204 26.307 30.332 24.57 17.285 65.523 18.847 86.636 3.304 3.301-2.43 6.358-4.418 6.793-4.418.435 0 2.069 3.846 3.632 8.547 2.268 6.824 2.728 9.646 2.279 13.994-.744 7.21-6.519 19.052-12.082 24.776-6.708 6.902-11.652 9.078-20.626 9.078-8.11 0-13.496-2-17.637-6.548-2.685-2.948-6.491-10.403-7.326-14.347-.579-2.732-.988-2.995-4.586-2.948-2.173.029-16.101 2.151-30.951 4.716-14.85 2.565-28.575 4.792-30.5 4.948-3.332.27-3.484.447-3.167 3.674.201 2.054-.193 3.723-1 4.235-1.553.984-17.136 1.164-21.703.251l-3.121-.624-.254-103.626L210.5 233.5l-28.138-.265-28.139-.266-5.12 6.311c-8.307 10.238-16.852 16.645-32.89 24.662-9.803 4.9-22.189 9.088-31.213 10.553-2.475.402-5.062 1.185-5.75 1.741-.948.765-1.25 7.989-1.25 29.886V335h2.792c6.543 0 34.133-8.997 46.429-15.141 3.147-1.573 6.185-2.859 6.75-2.859.694 0 1.029 20.166 1.029 61.933v61.932l-2.129.676c-1.171.372-15.458.514-31.75.317L71.5 441.5l-.267 26.918c-.176 17.815-.64 27.368-1.372 28.25-.855 1.03-5.729 1.332-21.483 1.332H28v22.732l211 .029 211 .029V498h-36.083c-37.609 0-39.635-.251-32.337-4 4.264-2.191 15.598-9.593 17.92-11.704 4.36-3.963 14.435-16.117 18.01-21.725 4.651-7.294 13.582-25.967 16.313-34.105 3.538-10.543 7.096-30.198 10.182-56.246 4.925-41.567 3.96-55.284-6.025-85.72-6.334-19.307-12.214-33.034-15.74-36.747-1.435-1.511-5.113-3.658-8.174-4.772-11.336-4.124-13.047-5.324-24.765-17.373-8.077-8.304-15.115-14.397-22.301-19.307-12.741-8.705-13.538-9.422-23.397-21.043-9.017-10.628-11.247-12.206-23.005-16.28-9.716-3.367-11.928-3.576-15.899-1.505m-6.329 9.114c-3.228 2.523-10.068 6.559-15.199 8.969-13.973 6.562-29.171 18.17-29.171 22.279 0 1.065 1.848 4.705 4.107 8.088 2.704 4.048 3.926 6.844 3.576 8.182-.631 2.411.989 7.688 3.114 10.145 1.087 1.258 3.087 1.77 7.108 1.82 6.926.087 11.809 1.752 5.454 1.86-2.277.038-8.396 1.176-13.598 2.527-17.388 4.518-26.22 8.728-27.878 13.29-.709 1.953-.272 2.524 3.348 4.371l4.164 2.124 2.468-2.869c1.475-1.715 3.235-2.739 4.376-2.546 1.263.214 2.097-.395 2.464-1.8.932-3.564 3.754-2.031 4.107 2.231.285 3.429.097 3.742-2.25 3.742-2.165 0-2.56.453-2.56 2.933 0 2.008.602 3.123 1.911 3.539 1.05.333 2.636 1.713 3.523 3.067 1.955 2.985 3.665 3.114 6.069.457 1.075-1.187 2.882-1.922 4.434-1.804 5.054.385 6.544-2.632 3.468-7.024-1.096-1.565-1.36-3.12-.846-4.972.412-1.483.655-3.654.539-4.825-.115-1.172.854-3.366 2.153-4.876l2.362-2.746 3.428 1.772c3.279 1.696 3.917 1.697 14.666.011 12.305-1.93 16.293-1.582 16.293 1.42 0 2.211-1.219 2.66-9.705 3.569-6.552.702-9.56 2.614-7.444 4.73.753.753 4.123 1.064 9.499.878 7.151-.247 9.222.086 14.595 2.348 3.445 1.45 7.409 2.498 8.81 2.329 5.14-.618 7.949-7.865 5.836-15.056-.678-2.308-.509-2.745 1.051-2.718 2.358.04 6.272 3.476 9.693 8.51 3.469 5.105 3.366 6.386-.835 10.458-1.925 1.866-3.5 3.979-3.5 4.696 0 2.834 3.939 1.047 8.424-3.823 3.451-3.746 5.021-4.828 5.829-4.02.809.809.76 1.754-.181 3.512-.844 1.577-1.045 3.833-.586 6.553.515 3.045.277 4.794-.893 6.58-2.416 3.687-1.968 4.502 2.473 4.502 2.236 0 4.955.476 6.043 1.058 1.571.841 3.462.388 9.184-2.2 3.964-1.792 9.132-4.549 11.486-6.126 7.332-4.914 10.285-2.1 6.092 5.805-1.271 2.396-1.963 4.704-1.538 5.13 1.172 1.172 9.357-3.549 11.334-6.536.957-1.447 1.987-4.425 2.287-6.618.721-5.263 3.274-5.828 6.016-1.331 2.32 3.806 2.528 7.506.836 14.839-1.045 4.528-2.042 5.926-8 11.221-7.247 6.441-8.767 9.467-4.177 8.315 5.336-1.339 9.768-5.41 12.856-11.809 4.898-10.15 7.548-8.336 7.491 5.127-.041 9.594-1.278 12.724-7.688 19.447-5.73 6.009-5.925 6.397-7.141 14.178-1.23 7.873-1.202 8.129 1.746 16.127 4.813 13.056 6.476 23.159 5.691 34.566-.422 6.119-.312 9.807.292 9.807 1.899 0 7.764-8.06 17.011-23.379 9.743-16.139 12.111-22.214 12.116-31.089.001-2.768.48-8.921 1.063-13.674 1.223-9.975-.268-19.594-4.683-30.208-2.938-7.064-4.617-9.158-6.701-8.358-1.132.434-1.64 3.473-2.197 13.136-.553 9.581-1.049 12.572-2.086 12.572-2.455 0-2.528-4.307-.357-21.016 2.286-17.589 2.12-22.788-.917-28.737-2.276-4.46-3.993-6.045-10.625-9.804-2.75-1.559-11.525-9.169-19.5-16.91-7.975-7.742-19-17.634-24.5-21.983-5.5-4.348-14.95-12.682-21-18.519-14.506-13.996-16.662-15.515-25.48-17.959-11-3.047-12.831-2.813-19.65 2.515m5.027 8.822c-.298.775-.061 3.138.525 5.25.587 2.113 1.069 7.554 1.072 12.091.006 7.521-.167 8.25-1.949 8.25-2.268 0-2.922-2.674-3.301-13.49-.194-5.569-.578-7.053-1.889-7.303-1.469-.28-1.588.806-1.112 10.131.712 13.957.333 14.175-13.243 7.606-9.549-4.62-15.5-6.126-15.5-3.923 0 .562 1.238 1.533 2.75 2.158 13.487 5.574 18.25 8.571 18.25 11.483 0 .722-1.8 2.449-4 3.838-7.04 4.444-3.964 6.34 3.701 2.281 4.189-2.219 4.22-2.22 11-.431 7.565 1.996 11.603 4.172 11.071 5.964-.194.652-2.81 2.409-5.812 3.904-4.772 2.375-5.105 2.722-2.644 2.75 5.824.066 14.108-6.416 17.236-13.489 4.798-10.849 8.536-22.791 7.468-23.859-2.48-2.48-8.02 8.612-8.02 16.058 0 2.583-.418 3.322-1.878 3.322-2.739 0-3.772-1.834-4.457-7.915-.529-4.697-.207-6.258 2.43-11.783 3.402-7.13 3.439-9.652.145-10.122-2.036-.29-2.24.091-2.24 4.191 0 8.089-3.857 7.248-4.744-1.034-.684-6.396-3.406-9.716-4.859-5.928m111.644 25.258c.022.458 3.531 7.267 7.797 15.13C430.627 240.152 434.91 246 437.636 246c1.649 0 8.352-6.899 8.359-8.604.005-1.086-28.093-26.579-30.012-27.229-.54-.184-.965.041-.942.5m-161.374 15c-.908.908-.818 8.548.119 10.02.973 1.531 5.347 3.155 6.964 2.586 1.734-.61 1.568-4.764-.25-6.273-.825-.685-1.5-2-1.5-2.922 0-2.956-3.53-5.214-5.333-3.411m40.833 46.83c-.55.187-2.687.621-4.75.966-2.813.471-3.75 1.107-3.75 2.547 0 2.592 2.421 3.712 9.842 4.552 5.669.641 6.47.494 8.701-1.602 3.891-3.656 3.227-5.583-2.183-6.324-4.883-.669-6.226-.693-7.86-.139m-41.5 4.235c1.925.822 6.875 1.79 11 2.151 5.497.48 8.768 1.385 12.25 3.386 2.613 1.502 6.861 3.943 9.442 5.424 3.835 2.201 5.981 2.703 11.75 2.75 6.183.05 7.554-.293 11.058-2.766 4.223-2.98 6.406-6.006 6.465-8.962.03-1.529-.288-1.619-2.215-.63-1.238.635-3.6 2.41-5.25 3.944-3.708 3.447-9.289 5.06-13.701 3.96-9.439-2.354-14.167-4.587-17.683-8.351-2.311-2.474-2.754-2.55-14.5-2.476-11.677.073-11.989.129-8.616 1.57m72 6.195c0 1.476 5.217 5.178 6.85 4.861 3.001-.582 2.123-2.582-1.829-4.163-4.728-1.892-5.021-1.932-5.021-.698m60.605 4.076c-3.061 2.316-3.552 3.08-2.292 3.564 3.798 1.457 10.834-2.902 9.131-5.657-.951-1.539-2.78-.979-6.839 2.093m-72.723 3.278c-9.824 12.312-11.462 32.123-3.771 45.589 5.295 9.272 16.631 14.265 27.645 12.176 6.678-1.266 10.364-3.193 15.943-8.336 7.334-6.76 8.801-10.496 8.801-22.41 0-11.625-.312-12.221-7.29-13.938-5.576-1.372-18.073-6.528-23.71-9.783-2.2-1.27-5.642-2.607-7.65-2.971-2.007-.363-4.199-1.324-4.872-2.134-1.707-2.058-2.133-1.907-5.096 1.807m26.475-1.768c-1.327 3.457 5.671 6.888 8.428 4.131 1.296-1.296.983-1.721-2.617-3.558-4.882-2.491-5.068-2.509-5.811-.573m11.637 5.291c-3.986 3.227-2.082 5.196 5.024 5.196 6.943 0 12.285-2.18 11.784-4.808-.508-2.661-13.627-2.964-16.808-.388m33.664 20.94c-.29.47-.825 7.132-1.188 14.805-.615 12.988-.888 14.434-3.949 20.951-1.809 3.85-3.768 10.081-4.354 13.848-1.183 7.604-3.056 11.189-6.72 12.858-3.082 1.404-3.074 2.781.039 7.368 2.44 3.597 4.497 9.329 4.508 12.565.003.902.828 2.654 1.832 3.894l1.826 2.255 2.71-2.894c4.325-4.619 8.69-11.94 9.278-15.563.298-1.837-.186-6.867-1.076-11.177-1.24-5.999-1.396-9.163-.666-13.495.524-3.112 1.099-14.65 1.277-25.64.292-17.962.158-20.013-1.332-20.305-.911-.179-1.894.06-2.185.53M268.173 545.713c-.515.983-6.435 14.837-13.155 30.787s-13.048 30.913-14.062 33.25l-1.844 4.25h19.945l2.614-6.027 2.614-6.028 13.56.278 13.559.277 2.095 5.5 2.096 5.5 10.202.285c5.612.157 10.203.017 10.203-.31 0-.326-3.651-9.23-8.113-19.784L293.434 559.5l-6.341-15-8.991-.287c-7.796-.248-9.117-.049-9.929 1.5m-223.694 1.088C33.16 550.715 28.578 556.948 28.53 568.5c-.036 8.619 2.855 14.505 9.226 18.783l4.256 2.857-7.296 10.68c-4.013 5.874-7.643 11.243-8.065 11.93-.597.971 1.667 1.25 10.127 1.25h10.896l6.913-10.25c6.802-10.084 6.982-10.255 11.163-10.557l4.25-.308V614h19v-69l-19.75.033c-16.093.026-20.68.354-24.771 1.768m56.976-.543c-.266.691-.364 16.104-.219 34.25l.264 32.992 9.25.288 9.25.287V588h25v26h19v-69h-19v26.062l-12.25-.281-12.25-.281-.28-12.75-.28-12.75h-9.001c-6.308 0-9.146.376-9.484 1.258M176 579.514v34.65l22.75-.332 22.75-.332 6-3c7.712-3.856 10.846-9.154 10.23-17.291-.478-6.308-2.776-9.798-8.589-13.045l-4.181-2.336 3.168-2.164c4.856-3.316 7.07-8.167 6.598-14.455-.478-6.36-2.758-9.776-8.815-13.209-4.292-2.433-5.024-2.509-27.161-2.818l-22.75-.317v34.649m147-.089V614h19v-20h7.895c20.944 0 31.921-9.546 30.941-26.904-.528-9.336-3.859-14.357-12.336-18.596-5.97-2.985-6.098-3.002-25.75-3.325L323 544.85v34.575m82.621-32.906c-5.91 1.623-11.347 5.818-14.355 11.076-2.982 5.214-3.143 15.765-.325 21.29 1.93 3.782 8.249 10.115 10.094 10.115 1.921 0 .837 2.136-6.535 12.871-4.125 6.007-7.5 11.193-7.5 11.525 0 .332 4.837.596 10.75.586l10.75-.017 6.917-10.532 6.916-10.532 4.084.3 4.083.299.207 9c.115 4.95.227 9.563.25 10.25.031.909 2.632 1.25 9.543 1.25h9.5v-69l-19.75.089c-13.15.06-21.38.538-24.629 1.43M195.202 566.25l.298 6.25 8.262-.106c8.96-.114 12.253-1.677 12.223-5.799-.035-4.778-3.918-6.595-14.098-6.595h-6.982l.297 6.25m-142.737-4.298c-2.821 1.143-4.346 3.202-5.076 6.853-.517 2.587-.107 3.63 2.417 6.155 2.914 2.914 3.395 3.04 11.617 3.04H70v-17l-7.75.063c-4.262.035-8.666.435-9.785.889M342 570v9h6.923c5.99 0 7.339-.349 10-2.589 2.422-2.038 3.07-3.368 3.045-6.25-.058-6.649-3.733-9.161-13.402-9.161H342v9m70.523-7.456c-3.762 1.988-4.489 3.157-4.508 7.251-.01 2.18.816 4.127 2.44 5.75 2.24 2.24 3.236 2.455 11.395 2.455h8.94l-.145-8.25-.145-8.25-7.5-.265c-5.319-.188-8.366.193-10.477 1.309m-138.454 13.675a2624.475 2624.475 0 01-3.776 9.531c-.379.935 1.411 1.25 7.1 1.25 4.184 0 7.607-.24 7.607-.532 0-1.015-6.255-16.972-6.957-17.749-.388-.43-2.177 2.945-3.974 7.5m-78.867 16.031l.298 6.25 6.726.295c11.798.518 17.818-2.501 16.383-8.217-.844-3.362-4.748-4.578-14.704-4.578h-9l.297 6.25M28 647v12h422v-24H28v12m-145.238 31.707c1.244.239 3.044.23 4-.02s-.062-.446-2.262-.435c-2.2.011-2.982.216-1.738.455m12.022.031c2.905.203 7.405.201 10-.004 2.594-.206.216-.371-5.284-.369-5.5.003-7.622.171-4.716.373"/></g></g></svg>